<?xml version="1.0" encoding="UTF-8"?>
<svg id="Camada_1" data-name="Camada 1" xmlns="http://www.w3.org/2000/svg" viewBox="0 0 348.33 291.57">
  <path d="M59.45.6c21.99,2.21,57.99,17.34,72.92,34.09,7.88,8.84,37.74,69.39,41.79,69.39,3.77,0,32.55-56.94,38.73-64.76C226.66,21.92,268.24.6,290.27.6h58.05l-174.84,290.97L0,.6c19.07,1.4,40.7-1.89,59.45,0ZM160.9,252.4l7.34-12.11L30.63,11.24l-15.25-2.22,145.51,243.39ZM40.58,9c-2.75,2.24,33.84,58.36,36.48,60.73,16.45,14.73,69.81,29.21,90.78,42.1-27.02-38.93-34.29-80.14-84.56-95.88-5.5-1.72-40.43-8.79-42.7-6.95ZM307.75,9c-23.96.95-47.76,7.15-68.13,19.99l-22.11,131.05L307.75,9ZM331.53,9l-12.73.9-150.26,249.6,4.94,13.87L331.53,9ZM176.24,231.42c3.4-1.79,31.54-59.49,38.81-66.45-5.95-4.62-33.71-46.82-36.69-46.83-3.47-.01-35.59,56.08-35.69,59.55-.1,3.35,30.76,55.2,33.57,53.73Z"/>
  <path d="M176.2,232.22c-2.84,1.5-34.14-51.09-34.04-54.49s32.67-60.4,36.19-60.39c3.02.01,31.17,42.81,37.21,47.49-7.37,7.05-35.91,65.56-39.36,67.38Z" fill="#e9bb9e"/>
  <path d="M40.58,9.32c2.26-1.84,37.08,5.21,42.57,6.93,50.12,15.7,57.36,56.78,84.3,95.59-20.91-12.86-74.1-27.29-90.5-41.97-2.63-2.36-39.11-58.31-36.37-60.54Z" fill="#e9bb9e"/>
</svg>