<?xml version="1.0" encoding="UTF-8"?>
<svg id="Camada_1" data-name="Camada 1" xmlns="http://www.w3.org/2000/svg" viewBox="0 0 188.73 55.55">
  <path d="M11.33.11c4.19.42,11.05,3.3,13.89,6.5,1.5,1.68,7.19,13.22,7.96,13.22.72,0,6.2-10.85,7.38-12.34C43.18,4.18,51.11.11,55.3.11h11.06l-33.31,55.44L0,.11C3.63.38,7.75-.25,11.33.11ZM30.66,48.09l1.4-2.31L5.84,2.14l-2.9-.42,27.72,46.37ZM7.73,1.72c-.52.43,6.45,11.12,6.95,11.57,3.13,2.81,13.3,5.56,17.29,8.02-5.15-7.42-6.53-15.27-16.11-18.27-1.05-.33-7.7-1.68-8.13-1.32ZM58.63,1.72c-4.56.18-9.1,1.36-12.98,3.81l-4.21,24.97L58.63,1.72ZM63.16,1.72l-2.43.17-28.63,47.55.94,2.64L63.16,1.72ZM33.58,44.09c.65-.34,6.01-11.33,7.39-12.66-1.13-.88-6.42-8.92-6.99-8.92-.66,0-6.78,10.68-6.8,11.34s5.86,10.52,6.4,10.24Z"/>
  <path d="M148.72,31.83c-1.24,1.08,2.98,1.1,3.71,2.82,2.54,6-7.48,6.13-8.4,4.38-.16-.31.52-1.93.68-2.03.41-.25,3.51,1.75,4.41-.11,1.38-2.88-3.82-1.62-4.13-1.87-.21-.16,1.55-3.21,1.33-3.46-.15-.17-3.65-.89-4.44-1.29-13.94-7.11-8.35-28.61,7.78-28.04,1.26.04,7.24,1.41,7.74,2.41.12.24-1.17,4.33-1.36,4.52-.41.41-3.16-1.97-4.6-2.31-15.22-3.64-17.01,22.51-.75,20.41,2.37-.31,4.25-2.41,4.95-2.53.8-.14,2.51,3.47,2.03,4.18-1.51,2.25-8.59,2.61-8.95,2.92Z"/>
  <path d="M160.85,31.83c-.15-.02-.92-.31-.93-.4,3.59-2.63,12.36-29.58,13.99-29.72s11.16,27.37,14.52,29.72c-.11.67-7.35.45-7.72.13-.07-.06.78-.83.75-1.66-.02-.47-2.23-5.37-2.53-5.49-.47-.19-9.55-.21-10.09-.07-.65.17-3.52,6.6-1.72,7.48-1.9-.23-4.46.31-6.26,0ZM177.51,20.64l-3.47-9.06-3.99,9.06h7.46Z"/>
  <path d="M132.73,31.83h-6.53c-1.63,0-.22-.95-.45-2.19-.11-.57-2.05-5-2.34-5.14-.65-.32-10.07-.22-10.54.13-.23.17-1.99,4.93-2.01,5.48s1.27,1.72.42,1.72h-6.13s-.67-.3-.66-.4c3.39-2.66,12.35-29.62,13.99-29.71s11.09,27.52,14.26,30.11ZM122.07,20.64c-.88-.9-3.37-9.06-3.86-9.07s-2.98,8.18-3.86,9.07h7.73Z"/>
  <path d="M89.55,2.51c-.16.45-1.33,1.34-1.33,1.73v23.32h10.79c1.03,0,3.98-1.49,4.13-1.33.2.21-1.04,5.59-1.33,5.59h-19.99c.83-1.39,1.15-1.91,1.34-3.59.52-4.49.53-17.66,0-22.14-.19-1.59-.55-2.27-1.34-3.59h7.73Z"/>
  <path d="M75.96,2.51c.12.08-1.16,1.39-1.34,2.53-.54,3.46-.52,20.21,0,23.74.22,1.5.77,1.82,1.35,3.05h-7.73c.91-1.42,1.16-2.15,1.34-3.85.5-4.64.54-17.29,0-21.87-.19-1.59-.55-2.27-1.34-3.59,1.08.21,7.33-.28,7.73,0Z"/>
  <path d="M33.58,44.09c-.53.28-6.41-9.6-6.4-10.24s6.14-11.35,6.8-11.34c.57,0,5.86,8.04,6.99,8.92-1.38,1.32-6.75,12.32-7.39,12.66Z" fill="#e9bb9e"/>
  <path d="M7.73,1.72c.43-.35,7.09,1,8.13,1.32,9.58,3,10.96,10.85,16.11,18.27-4-2.46-14.16-5.21-17.29-8.02-.5-.45-7.47-11.14-6.95-11.57Z" fill="#e9bb9e"/>
  <text transform="translate(67.32 47.67)" fill="#1d1d1b" font-family="Montserrat-SemiBold, Montserrat" font-size="9.95" font-weight="600"><tspan x="0" y="0">ESQ</tspan><tspan x="21.3" y="0" letter-spacing="-.02em">U</tspan><tspan x="29.01" y="0">ADRIAS E </tspan><tspan x="81" y="0" letter-spacing="-.01em">V</tspan><tspan x="88.1" y="0">IDROS</tspan></text>
</svg>